<svg id="Layer_1" data-name="Layer 1" xmlns="http://www.w3.org/2000/svg" xmlns:xlink="http://www.w3.org/1999/xlink" viewBox="0 0 2000 500"><defs><style>.cls-1{fill:none;}.cls-2{clip-path:url(#clip-path);}.cls-3{fill:#1655a1;}.cls-4{clip-path:url(#clip-path-2);}.cls-5{opacity:0.6;}.cls-6{fill:url(#linear-gradient);}.cls-7{fill:#287eb3;opacity:0.9;isolation:isolate;}.cls-8{fill:url(#linear-gradient-2);}.cls-9{fill:url(#linear-gradient-3);}.cls-10{fill:url(#linear-gradient-4);}.cls-11{fill:url(#linear-gradient-5);}.cls-12{fill:url(#linear-gradient-6);}.cls-13{fill:url(#linear-gradient-7);}.cls-14{fill:url(#linear-gradient-8);}.cls-15{fill:url(#linear-gradient-9);}.cls-16{fill:url(#linear-gradient-10);}.cls-17{fill:url(#linear-gradient-11);}.cls-18{fill:url(#linear-gradient-12);}.cls-19{fill:url(#linear-gradient-13);}.cls-20{fill:url(#linear-gradient-14);}.cls-21{fill:url(#linear-gradient-15);}</style><clipPath id="clip-path"><rect class="cls-1" x="-1.01" y="0.06" width="2000" height="500"/></clipPath><clipPath id="clip-path-2"><rect id="_Rectangle_" data-name="&lt;Rectangle&gt;" class="cls-1" x="-72.36" y="-17.53" width="2341.84" height="520.82" transform="translate(-0.38 1.73) rotate(-0.09)"/></clipPath><linearGradient id="linear-gradient" x1="-2367.37" y1="386.99" x2="-2396.58" y2="269.83" gradientTransform="matrix(-1, 0, 0, 1, -2080.86, 1.15)" gradientUnits="userSpaceOnUse"><stop offset="0" stop-color="#1a95b4" stop-opacity="0"/><stop offset="1" stop-color="#1e5fa8"/></linearGradient><linearGradient id="linear-gradient-2" x1="-2999.49" y1="355.98" x2="-3028.7" y2="238.82" xlink:href="#linear-gradient"/><linearGradient id="linear-gradient-3" x1="-4013.06" y1="386.99" x2="-4042.27" y2="269.83" xlink:href="#linear-gradient"/><linearGradient id="linear-gradient-4" x1="-3379.82" y1="324.97" x2="-3409.03" y2="207.8" xlink:href="#linear-gradient"/><linearGradient id="linear-gradient-5" x1="-3238.59" y1="288.31" x2="-3296.38" y2="56.54" xlink:href="#linear-gradient"/><linearGradient id="linear-gradient-6" x1="-4013.06" y1="448.78" x2="-4042.27" y2="331.62" xlink:href="#linear-gradient"/><linearGradient id="linear-gradient-7" x1="-2999.49" y1="417.77" x2="-3028.7" y2="300.6" xlink:href="#linear-gradient"/><linearGradient id="linear-gradient-8" x1="-3244.72" y1="485.26" x2="-3290.25" y2="302.64" xlink:href="#linear-gradient"/><linearGradient id="linear-gradient-9" x1="-3752.11" y1="517.26" x2="-3797.88" y2="333.68" xlink:href="#linear-gradient"/><linearGradient id="linear-gradient-10" x1="-2746.34" y1="352.25" x2="-2775.55" y2="235.09" xlink:href="#linear-gradient"/><linearGradient id="linear-gradient-11" x1="-2872.79" y1="637.26" x2="-2902" y2="520.1" gradientTransform="matrix(-1, 0, 0, 1, -2080.86, 1.15)" gradientUnits="userSpaceOnUse"><stop offset="0" stop-color="#1a95b4" stop-opacity="0"/><stop offset="1" stop-color="#1a95b4"/></linearGradient><linearGradient id="linear-gradient-12" x1="-2872.79" y1="575.48" x2="-2902" y2="458.31" xlink:href="#linear-gradient"/><linearGradient id="linear-gradient-13" x1="-2356.53" y1="538.45" x2="-2407.42" y2="334.32" xlink:href="#linear-gradient"/><linearGradient id="linear-gradient-14" x1="-2487.98" y1="207.42" x2="-2530.32" y2="37.63" xlink:href="#linear-gradient"/><linearGradient id="linear-gradient-15" x1="-2107.05" y1="326.63" x2="-2151.56" y2="148.11" xlink:href="#linear-gradient"/></defs><title>Artboard 1</title><g class="cls-2"><rect class="cls-3" x="-72.36" y="-18.55" width="2341.84" height="520.82"/><g class="cls-4"><g class="cls-5"><polygon class="cls-6" points="238.24 372.31 365.23 403.13 365.03 279.31 238.04 248.5 238.24 372.31"/><polygon class="cls-7" points="365.05 217.46 238.46 248.59 365.15 279.31 491.75 248.19 365.05 217.46"/><polygon class="cls-8" points="870.31 340.31 997.3 371.12 997.1 247.31 870.12 216.49 870.31 340.31"/><polygon class="cls-7" points="997.12 185.21 870.52 216.34 997.22 247.07 1123.82 215.94 997.12 185.21"/><polygon class="cls-9" points="1883.93 369.72 2010.91 400.54 2010.72 276.72 1883.73 245.91 1883.93 369.72"/><polygon class="cls-7" points="2010.74 214.87 1884.14 246 2010.84 276.72 2137.44 245.6 2010.74 214.87"/><polygon class="cls-10" points="1250.59 308.69 1377.58 339.51 1377.38 215.69 1250.39 184.88 1250.59 308.69"/><polygon class="cls-7" points="1376.68 153.84 1250.08 184.97 1376.78 215.7 1503.38 184.57 1376.68 153.84"/><polygon class="cls-11" points="1123.6 275.8 1250.59 306.61 1250.2 61.07 1123.21 30.26 1123.6 275.8"/><polygon class="cls-7" points="1250.22 -0.79 1123.63 30.34 1250.32 61.07 1376.92 29.94 1250.22 -0.79"/><polygon class="cls-12" points="1884.03 431.51 2011.01 462.32 2010.82 338.51 1883.83 307.7 1884.03 431.51"/><polygon class="cls-7" points="2010.84 276.65 1884.24 307.78 2010.94 338.51 2137.53 307.38 2010.84 276.65"/><polygon class="cls-7" points="996.74 247.24 870.14 278.36 996.84 309.09 1123.43 277.96 996.74 247.24"/><polygon class="cls-13" points="870.41 402.09 997.39 432.9 997.2 309.09 870.21 278.28 870.41 402.09"/><polygon class="cls-7" points="1250.13 246.84 1123.53 277.96 1250.23 308.69 1376.83 277.57 1250.13 246.84"/><polygon class="cls-7" points="1376.78 215.63 1250.18 246.75 1376.88 277.48 1503.47 246.35 1376.78 215.63"/><polygon class="cls-14" points="1123.91 471.22 1250.89 502.03 1250.59 308.69 1123.61 277.88 1123.91 471.22"/><polygon class="cls-7" points="1758.17 277.05 1631.57 308.18 1758.27 338.91 1884.86 307.78 1758.17 277.05"/><polygon class="cls-15" points="1631.47 502.45 1758.45 533.26 1758.14 338.91 1631.16 308.09 1631.47 502.45"/><polygon class="cls-7" points="743.49 182.12 616.89 213.25 743.58 243.97 870.18 212.85 743.49 182.12"/><polygon class="cls-16" points="617.15 336.97 744.14 367.78 743.94 243.97 616.96 213.16 617.15 336.97"/><polygon class="cls-17" points="744.06 621.78 871.04 652.6 870.85 528.79 743.86 497.97 744.06 621.78"/><polygon class="cls-18" points="743.96 560 870.95 590.81 870.75 467 743.76 436.19 743.96 560"/><polygon class="cls-7" points="870.87 466.93 744.27 498.06 870.97 528.79 997.57 497.66 870.87 466.93"/><polygon class="cls-7" points="870.77 405.14 744.17 436.27 870.87 467 997.47 435.87 870.77 405.14"/><polygon class="cls-7" points="997.52 435.96 870.92 467.08 997.62 497.81 1124.21 466.69 997.52 435.96"/><polygon class="cls-7" points="-14.95 -29.57 -141.54 1.56 -14.85 32.29 111.75 1.16 -14.95 -29.57"/><polygon class="cls-19" points="238.48 526.47 365.47 557.28 365.13 341.1 238.14 310.29 238.48 526.47"/><polygon class="cls-7" points="365.15 279.24 238.55 310.37 365.25 341.1 491.85 309.97 365.15 279.24"/><polygon class="cls-7" points="491.8 248.27 365.2 279.4 491.89 310.13 618.49 279 491.8 248.27"/><polygon class="cls-7" points="491.86 -16.58 365.26 14.55 491.96 45.28 618.56 14.15 491.86 -16.58"/><polygon class="cls-20" points="365.14 194.18 492.12 224.99 491.84 45.28 364.85 14.47 365.14 194.18"/><polygon class="cls-7" points="112.19 94.23 -14.41 125.36 112.28 156.09 238.88 124.96 112.19 94.23"/><polygon class="cls-21" points="-14.52 314.25 112.46 345.07 112.16 156.09 -14.82 125.28 -14.52 314.25"/></g></g></g></svg>